<svg xmlns="http://www.w3.org/2000/svg" width="447" height="256.416" viewBox="0 0 447 256.416">
  <g id="Group_32" data-name="Group 32" transform="translate(753.739 -218.002)">
    <path id="Path_39" data-name="Path 39" d="M-711.492,567.966h368.914a3.545,3.545,0,0,1,3.52,3.555h0a3.546,3.546,0,0,1-3.52,3.555H-711.492a3.546,3.546,0,0,1-3.521-3.555h0a3.545,3.545,0,0,1,3.521-3.555Zm401.232,0h-.039a3.544,3.544,0,0,0-3.52,3.555h0a3.546,3.546,0,0,0,3.52,3.555h.039a3.546,3.546,0,0,0,3.52-3.555h0a3.544,3.544,0,0,0-3.52-3.555Zm-11.947,0H-328.1a3.545,3.545,0,0,0-3.522,3.555h0a3.547,3.547,0,0,0,3.522,3.555h5.893a3.546,3.546,0,0,0,3.521-3.555h0a3.545,3.545,0,0,0-3.521-3.555Zm-407.838,0h-20.175a3.545,3.545,0,0,0-3.521,3.555h0a3.547,3.547,0,0,0,3.521,3.555h20.175a3.546,3.546,0,0,0,3.521-3.555h0a3.545,3.545,0,0,0-3.521-3.555Z" transform="translate(0 -100.658)" fill-rule="evenodd"/>
    <path id="Path_40" data-name="Path 40" d="M-638.813,288.79h-5.617v-5.634a3.063,3.063,0,0,0-3.046-3.076h0a3.055,3.055,0,0,0-3.006,3.076v5.634H-656.1a3.055,3.055,0,0,0-3.007,3.076h0a3.055,3.055,0,0,0,3.007,3.076h5.617v5.634a3.055,3.055,0,0,0,3.006,3.076h0a3.063,3.063,0,0,0,3.046-3.076v-5.634h5.617a3.055,3.055,0,0,0,3.007-3.076h0a3.055,3.055,0,0,0-3.007-3.076Z" transform="translate(-27.219 -17.855)" fill-rule="evenodd"/>
    <path id="Path_41" data-name="Path 41" d="M-679.121,449.651a5.624,5.624,0,0,0,5.577-5.633,5.624,5.624,0,0,0-5.577-5.634,5.6,5.6,0,0,0-5.578,5.634,5.6,5.6,0,0,0,5.578,5.633Z" transform="translate(-19.858 -63.387)" fill-rule="evenodd"/>
    <path id="Path_42" data-name="Path 42" d="M-565.7,269.794c34.83-18.082,55.845-17.1,90.784-.622,28.209,13.3,51.576,1.864,84.344,31.344,24.161,24.439,34.324,47.307,30.129,81.9-3.545,29.334,13.31,45.407-5.173,84.2-2.206,4.127-4.557,8.035-7.016,11.763H-623.639c-12.985-22.9-16.385-52.057-6.691-80.843,6.257-18.594,11.1-27.763,16.239-48.221,4.269-16.8,7.018-30.8,15.154-46.357,8.645-15.124,18.808-24,33.239-33.17Z" transform="translate(-33.892 -11.08)" fill="#fce3ff" fill-rule="evenodd"/>
    <g id="Group_31" data-name="Group 31" transform="translate(-649.018 218.002)">
      <path id="Path_43" data-name="Path 43" d="M-502.784,263.068h7.491a30.658,30.658,0,0,0-.532,6.954,35.515,35.515,0,0,0,.532,7.491h-12.3V263.068Z" transform="translate(578.221 -230.964)" fill="#707487"/>
      <path id="Path_44" data-name="Path 44" d="M-407.416,263.068v14.445h-12.3l.044-.239a25.883,25.883,0,0,0,1-6.271c.01-.321.019-.648.019-.98,0-.155-.005-.31-.005-.466a24.751,24.751,0,0,0-.994-6.488h12.235Z" transform="translate(552.945 -230.964)" fill="#707487"/>
      <path id="Path_45" data-name="Path 45" d="M-434.489,245.186a28.691,28.691,0,0,1,6.847,11.85h-1.074a27.227,27.227,0,0,1-18.55-7.854,27.56,27.56,0,0,0,5.584-8.942A26.532,26.532,0,0,1-434.489,245.186Z" transform="translate(560.869 -224.398)" fill="#8e725d"/>
      <path id="Path_46" data-name="Path 46" d="M-464.816,236.782c.244,0,.492,0,.737.01a33.9,33.9,0,0,1,7.2,1.214,26.483,26.483,0,0,1,3.156,1.235,26.289,26.289,0,0,1-5.746,8.776c.058.058.118.117.176.171a25.844,25.844,0,0,1-18.9,8.39,26.207,26.207,0,0,1-10.88-2.526,25.658,25.658,0,0,1,20.784-17.041c.176-.026.352-.049.536-.062.234-.033.469-.055.713-.072.068-.01.142-.014.209-.022.3-.02.6-.036.912-.046a.761.761,0,0,1,.166,0,3.262,3.262,0,0,1,.409-.011C-465.169,236.782-464.993,236.782-464.816,236.782Z" transform="translate(572.893 -223.404)" fill="#a28671"/>
      <path id="Path_47" data-name="Path 47" d="M-452.586,347.936v5.886h-10.7v-5.886Z" transform="translate(565.476 -255.374)" fill="#b2dbd8"/>
      <path id="Path_48" data-name="Path 48" d="M-446.1,322.4l.536,18.19h-34.244l1.073-18.19,15.517,14.981Z" transform="translate(570.23 -248.03)" fill="#d8f2f1"/>
      <path id="Path_49" data-name="Path 49" d="M-482.079,340.592v5.886h-46.548V336.313l35.848-13.911-1.073,18.19Z" transform="translate(584.27 -248.03)" fill="#86dcfd"/>
      <path id="Path_50" data-name="Path 50" d="M-401.182,336.313v10.165h-47.084v-5.886h11.772l-.536-18.19Z" transform="translate(561.156 -248.03)" fill="#86dcfd"/>
      <path id="Path_51" data-name="Path 51" d="M-459.99,308.363c.224,0,.448,0,.672-.01.123,0,.249,0,.37-.01.181-.007.356-.017.541-.027.254-.016.512-.034.77-.062a25.7,25.7,0,0,0,6.565-1.457.651.651,0,0,1,.078-.029c.926-.319,1.854-.683,2.775-1.081v14.982L-460.527,331.9h-1.068l-10.7-10.7V305.217a25.045,25.045,0,0,0,9.9,3.034c.254.026.5.043.756.06.024,0,.058,0,.088,0,.157.01.317.02.478.027.137,0,.274.01.41.01C-460.439,308.358-460.216,308.363-459.99,308.363Z" transform="translate(568.067 -243.087)" fill="#eabd8c"/>
      <path id="Path_52" data-name="Path 52" d="M-440.242,258.5a33.272,33.272,0,0,1,1.062,6.488c0,.156,0,.311,0,.466,0,.332-.009.659-.019.98a40.946,40.946,0,0,1-1,6.271,26.347,26.347,0,0,1-16.2,17.371.651.651,0,0,0-.078.029,28.039,28.039,0,0,1-6.565,1.457c-.258.023-.516.046-.77.062-.185.01-.36.02-.541.027-.122,0-.248.01-.37.01-.224.005-.448.01-.672.01s-.45,0-.674-.01c-.141,0-.273,0-.41-.01-.161-.013-.321-.017-.478-.027-.029,0-.063,0-.088,0-.253-.016-.5-.039-.756-.06a24.648,24.648,0,0,1-9.9-3.1v.063a26.185,26.185,0,0,1-13.377-23.072,25.437,25.437,0,0,1,1.424-8.41,26.207,26.207,0,0,0,10.88,2.526,25.844,25.844,0,0,0,18.9-8.39,27.227,27.227,0,0,0,18.55,7.854h1.074a28.69,28.69,0,0,0-6.847-11.85,25.959,25.959,0,0,1,6.915,11.316Z" transform="translate(573.468 -226.395)" fill="#ffd8a8"/>
      <path id="Path_53" data-name="Path 53" d="M-301.009,409.393V434a9.019,9.019,0,0,1-9.095,9.1h-2.141v10.7L-329.9,443.1h-25.145a9.02,9.02,0,0,1-9.1-9.1V409.393c0-5.02,3.293-9.092,8.115-9.583.1-.011.2-.016.3-.021a1.851,1.851,0,0,1,.229-.019c.151,0,.3-.009.453-.009H-310.1C-304.754,399.762-301.009,404.041-301.009,409.393Z" transform="translate(536.962 -270.281)" fill="#ff7979"/>
      <path id="Path_54" data-name="Path 54" d="M-374.3,410.278v26.751a9.02,9.02,0,0,0,9.1,9.1h25.145l3.209,2.139c-1.068,3.209-4.813,5.351-8.559,5.351h-25.15l-17.653,10.7v-10.7h-2.141a9.018,9.018,0,0,1-9.094-9.1v-24.61c0-5.352,4.281-9.631,9.094-9.631Z" transform="translate(547.113 -273.305)" fill="#80af52"/>
      <path id="Path_55" data-name="Path 55" d="M-448.265,433.069a9.018,9.018,0,0,0,9.094,9.1h2.141v10.7l17.653-10.7h16.055v27.288H-569.188V370.47h165.866v20.867h-10.7c-.151,0-.3.006-.453.009-.073.009-.152.009-.229.019a2.805,2.805,0,0,0-.3.021,8.7,8.7,0,0,0-8.115,7.443h-16.048c-4.814,0-9.094,4.279-9.094,9.631Z" transform="translate(595.936 -261.855)" fill="#d8f2f1"/>
      <path id="Path_56" data-name="Path 56" d="M-454.714,519.182A4.8,4.8,0,0,1-449.9,524a4.8,4.8,0,0,1-4.818,4.816A4.8,4.8,0,0,1-459.528,524,4.794,4.794,0,0,1-454.714,519.182Z" transform="translate(564.396 -304.629)" fill="#57606f"/>
      <path id="Path_57" data-name="Path 57" d="M-387.794,509.42v11.768a11.875,11.875,0,0,1-11.772,11.771H-593.248c-6.422,0-11.236-5.349-11.236-11.771V509.42h216.69Zm-103.8,11.768a4.8,4.8,0,0,0-4.818-4.814,4.794,4.794,0,0,0-4.814,4.814A4.8,4.8,0,0,0-496.407,526,4.8,4.8,0,0,0-491.589,521.188Z" transform="translate(606.088 -301.821)" fill="#414a56"/>
      <path id="Path_58" data-name="Path 58" d="M-326.722,471.114V498.4h-9.631V471.114h9.631Z" transform="translate(528.967 -290.803)" fill="#57606f"/>
      <path id="Path_59" data-name="Path 59" d="M-397.579,356.2v31.033h-9.631V366.365H-573.077V465.35h-9.631V356.2h185.129Z" transform="translate(599.825 -257.751)" fill="#57606f"/>
      <path id="Path_60" data-name="Path 60" d="M-400.214,533.917H-593.9c-7.2,0-12.84-5.876-12.84-13.378V508.771a1.6,1.6,0,0,1,1.6-1.607h15.513a1.609,1.609,0,0,1,1.609,1.607,1.608,1.608,0,0,1-1.609,1.6h-13.908V520.54c0,5.7,4.227,10.167,9.631,10.167h193.682a10.3,10.3,0,0,0,10.168-10.167V510.375H-404.49a1.6,1.6,0,0,1-1.6-1.6,1.6,1.6,0,0,1,1.6-1.607h16.048a1.605,1.605,0,0,1,1.6,1.607V520.54A13.555,13.555,0,0,1-400.214,533.917Z" transform="translate(606.736 -301.172)" fill="#000729"/>
      <path id="Path_61" data-name="Path 61" d="M-327.37,499.357H-337a1.6,1.6,0,0,1-1.6-1.6,1.605,1.605,0,0,1,1.6-1.607h8.027V471.66a1.583,1.583,0,0,1-.537-1.195,1.605,1.605,0,0,1,1.6-1.607h.536a1.605,1.605,0,0,1,1.6,1.607v27.288A1.6,1.6,0,0,1-327.37,499.357Z" transform="translate(529.615 -290.154)" fill="#000729"/>
      <path id="Path_62" data-name="Path 62" d="M-573.724,466.306h-9.631a1.607,1.607,0,0,1-1.6-1.6V355.551a1.605,1.605,0,0,1,1.6-1.6h38.526a1.6,1.6,0,0,1,1.6,1.6,1.6,1.6,0,0,1-1.6,1.6h-36.917V463.1h8.022a1.6,1.6,0,0,1,1.6,1.607A1.6,1.6,0,0,1-573.724,466.306Z" transform="translate(600.473 -257.103)" fill="#000729"/>
      <path id="Path_63" data-name="Path 63" d="M-340.548,388.19a1.6,1.6,0,0,1-1.6-1.606V357.156h-40.667a1.6,1.6,0,0,1-1.6-1.6,1.6,1.6,0,0,1,1.6-1.6h42.272a1.6,1.6,0,0,1,1.6,1.6v31.033A1.605,1.605,0,0,1-340.548,388.19Z" transform="translate(542.794 -257.103)" fill="#000729"/>
      <path id="Path_64" data-name="Path 64" d="M-364.79,408.213a1.887,1.887,0,0,1-.2-.012,1.6,1.6,0,0,1-1.394-1.792,10.326,10.326,0,0,1,9.552-8.841c.113-.013.226-.022.343-.028a3.406,3.406,0,0,1,.341-.017,1.608,1.608,0,0,1,1.609,1.6,1.607,1.607,0,0,1-1.609,1.606,1.551,1.551,0,0,1-.229.016,1.21,1.21,0,0,0-.127.013,7.065,7.065,0,0,0-6.7,6.044A1.6,1.6,0,0,1-364.79,408.213Z" transform="translate(537.609 -269.637)" fill="#000729"/>
      <path id="Path_65" data-name="Path 65" d="M-403.97,470.41H-569.836a1.607,1.607,0,0,1-1.6-1.6V369.822a1.607,1.607,0,0,1,1.6-1.6H-403.97a1.6,1.6,0,0,1,1.6,1.6v20.867a1.6,1.6,0,0,1-1.6,1.606,1.605,1.605,0,0,1-1.6-1.606V371.427H-568.231V467.2h162.657V441.518a1.605,1.605,0,0,1,1.6-1.607,1.6,1.6,0,0,1,1.6,1.607v27.288A1.6,1.6,0,0,1-403.97,470.41Z" transform="translate(596.584 -261.207)" fill="#000729"/>
      <path id="Path_66" data-name="Path 66" d="M-477,428.508h-69.556a1.606,1.606,0,0,1-1.6-1.6,1.607,1.607,0,0,1,1.6-1.607H-477a1.608,1.608,0,0,1,1.609,1.607A1.608,1.608,0,0,1-477,428.508Z" transform="translate(589.888 -277.625)" fill="#000729"/>
      <path id="Path_67" data-name="Path 67" d="M-462.955,439.774H-497.73a1.6,1.6,0,0,1-1.6-1.6,1.6,1.6,0,0,1,1.6-1.6h34.775a1.608,1.608,0,0,1,1.609,1.6A1.606,1.606,0,0,1-462.955,439.774Z" transform="translate(575.845 -280.866)" fill="#000729"/>
      <path id="Path_68" data-name="Path 68" d="M-501.073,450.289h-45.48a1.606,1.606,0,0,1-1.6-1.6,1.607,1.607,0,0,1,1.6-1.6h45.48a1.6,1.6,0,0,1,1.6,1.6A1.6,1.6,0,0,1-501.073,450.289Z" transform="translate(589.888 -283.89)" fill="#000729"/>
      <path id="Path_69" data-name="Path 69" d="M-477,460.8h-69.556a1.6,1.6,0,0,1-1.6-1.6,1.607,1.607,0,0,1,1.6-1.606H-477a1.608,1.608,0,0,1,1.609,1.606A1.606,1.606,0,0,1-477,460.8Z" transform="translate(589.888 -286.914)" fill="#000729"/>
      <path id="Path_70" data-name="Path 70" d="M-473.109,472.07h-59.925a1.608,1.608,0,0,1-1.6-1.6,1.608,1.608,0,0,1,1.6-1.607h59.925a1.609,1.609,0,0,1,1.609,1.607A1.609,1.609,0,0,1-473.109,472.07Z" transform="translate(585.999 -290.154)" fill="#000729"/>
      <path id="Path_71" data-name="Path 71" d="M-501.073,482.585h-45.48a1.607,1.607,0,0,1-1.6-1.6,1.608,1.608,0,0,1,1.6-1.607h45.48a1.6,1.6,0,0,1,1.6,1.607A1.6,1.6,0,0,1-501.073,482.585Z" transform="translate(589.888 -293.178)" fill="#000729"/>
      <path id="Path_72" data-name="Path 72" d="M-477,493.852h-69.556a1.605,1.605,0,0,1-1.6-1.6,1.6,1.6,0,0,1,1.6-1.6H-477a1.605,1.605,0,0,1,1.609,1.6A1.607,1.607,0,0,1-477,493.852Z" transform="translate(589.888 -296.42)" fill="#000729"/>
      <path id="Path_73" data-name="Path 73" d="M-456.985,237.761a1.6,1.6,0,0,1-1.6-1.475,1.6,1.6,0,0,1,1.467-1.73,5.171,5.171,0,0,1,.6-.015,1.606,1.606,0,0,1,1.542,1.666,1.605,1.605,0,0,1-1.663,1.544,1.6,1.6,0,0,0-.219.007C-456.9,237.759-456.941,237.761-456.985,237.761Z" transform="translate(564.126 -222.758)" fill="#000729"/>
      <path id="Path_74" data-name="Path 74" d="M-458.5,237.824a1.605,1.605,0,0,1-1.6-1.492,1.6,1.6,0,0,1,1.489-1.714c.326-.024.643-.039.965-.051a1.627,1.627,0,0,1,1.663,1.545,1.612,1.612,0,0,1-1.546,1.663c-.288.01-.571.026-.853.046C-458.42,237.822-458.459,237.824-458.5,237.824Z" transform="translate(564.561 -222.766)" fill="#000729"/>
      <path id="Path_75" data-name="Path 75" d="M-459.8,237.941a1.612,1.612,0,0,1-1.6-1.425,1.608,1.608,0,0,1,1.42-1.776c.258-.03.522-.058.78-.077a1.612,1.612,0,0,1,1.712,1.492,1.6,1.6,0,0,1-1.492,1.712c-.21.015-.43.039-.64.063A1.675,1.675,0,0,1-459.8,237.941Z" transform="translate(564.935 -222.794)" fill="#000729"/>
      <path id="Path_76" data-name="Path 76" d="M-467.687,289.678l-.1,0c-.272-.02-.546-.036-.818-.066a26.584,26.584,0,0,1-10.515-3.226,27.84,27.84,0,0,1-14.2-24.477,27.014,27.014,0,0,1,1.511-8.94,27.11,27.11,0,0,1,22.086-18.1,1.608,1.608,0,0,1,1.805,1.378,1.608,1.608,0,0,1-1.376,1.805,23.917,23.917,0,0,0-19.486,15.976,23.879,23.879,0,0,0-1.332,7.882,24.632,24.632,0,0,0,12.548,21.667,23.368,23.368,0,0,0,9.272,2.841c.253.026.482.041.711.056a1.606,1.606,0,0,1,1.5,1.7A1.613,1.613,0,0,1-467.687,289.678Z" transform="translate(574.116 -222.848)" fill="#000729"/>
      <path id="Path_77" data-name="Path 77" d="M-456.967,310.559c-.151,0-.292,0-.439-.01-.185-.007-.351-.017-.517-.027a1.623,1.623,0,0,1-1.516-1.708,1.585,1.585,0,0,1,1.687-1.5c.171.01.3.02.429.025.147,0,.249.01.356.01a1.6,1.6,0,0,1,1.6,1.6A1.6,1.6,0,0,1-456.967,310.559Z" transform="translate(564.371 -243.69)" fill="#000729"/>
      <path id="Path_78" data-name="Path 78" d="M-454.726,309.946a1.6,1.6,0,0,1-1.6-1.6,1.6,1.6,0,0,1,1.6-1.6c.093,0,.181-.006.269-.01h.053c.146,0,.288-.015.43-.021l.068,0c.224-.012.458-.028.7-.051a24.167,24.167,0,0,0,6.179-1.373,1.607,1.607,0,0,1,2.057.957,1.607,1.607,0,0,1-.955,2.06,27.237,27.237,0,0,1-6.973,1.55c-.254.026-.537.043-.814.063l-.073,0c-.17.01-.346.023-.521.027C-454.452,309.941-454.589,309.946-454.726,309.946Z" transform="translate(563.476 -243.076)" fill="#000729"/>
      <path id="Path_79" data-name="Path 79" d="M-443.041,298.806a1.607,1.607,0,0,1-1.507-1.052,1.611,1.611,0,0,1,.956-2.062,24.741,24.741,0,0,0,15.2-16.31,24.157,24.157,0,0,0,.942-5.881,1.618,1.618,0,0,1,1.658-1.549,1.6,1.6,0,0,1,1.547,1.661,27.416,27.416,0,0,1-1.059,6.659,27.981,27.981,0,0,1-17.185,18.435A1.61,1.61,0,0,1-443.041,298.806Z" transform="translate(560.115 -233.519)" fill="#000729"/>
      <path id="Path_80" data-name="Path 80" d="M-429.162,262.959a1.606,1.606,0,0,1-1.6-1.575,22.963,22.963,0,0,0-.931-6.069,24.349,24.349,0,0,0-6.486-10.612,24.742,24.742,0,0,0-6.759-4.645.348.348,0,0,1-.048-.023,25.238,25.238,0,0,0-2.931-1.146,24.822,24.822,0,0,0-6.759-1.138,1.6,1.6,0,0,1-1.56-1.649,1.607,1.607,0,0,1,1.6-1.56h.048a27.945,27.945,0,0,1,7.637,1.291,28.075,28.075,0,0,1,3.355,1.311h0a.223.223,0,0,1,.034.018,27.948,27.948,0,0,1,7.607,5.23,27.6,27.6,0,0,1,7.34,12.019,26.3,26.3,0,0,1,1.059,6.912,1.6,1.6,0,0,1-1.576,1.633A.1.1,0,0,1-429.162,262.959Z" transform="translate(563.45 -222.759)" fill="#000729"/>
      <path id="Path_81" data-name="Path 81" d="M-428.351,257.86a.009.009,0,0,1-.01,0h-1.074a28.841,28.841,0,0,1-19.657-8.294c-.068-.063-.137-.132-.2-.2a1.617,1.617,0,0,1-.469-1.134,1.627,1.627,0,0,1,.469-1.137,24.573,24.573,0,0,0,5.412-8.276l.146-.34a1.6,1.6,0,0,1,.923-.856,1.6,1.6,0,0,1,1.258.078,27.491,27.491,0,0,1,7.51,5.593,30.174,30.174,0,0,1,7.174,12.341,1.573,1.573,0,0,1,.127.622A1.6,1.6,0,0,1-428.351,257.86Zm-17.537-9.7a25.676,25.676,0,0,0,15.288,6.459,27.106,27.106,0,0,0-5.765-9.1,24.941,24.941,0,0,0-5.159-4.138A27.253,27.253,0,0,1-445.888,248.161Z" transform="translate(561.588 -223.619)" fill="#000729"/>
      <path id="Path_82" data-name="Path 82" d="M-478.985,257.533a27.6,27.6,0,0,1-11.509-2.654c-.117-.049-.254-.1-.39-.166a1.608,1.608,0,0,1-.843-2.016,27.657,27.657,0,0,1,22.437-17.928c.171-.026.362-.048.566-.068.244-.033.483-.056.732-.071.068-.01.142-.016.215-.023.345-.024.657-.041.965-.053.078-.006.146-.009.239-.009.141-.009.278-.014.419-.01.43-.019.878-.009,1.318,0a35.825,35.825,0,0,1,7.573,1.265c.971.256,2,.542,3.336.928a1.612,1.612,0,0,1,1,.836,1.635,1.635,0,0,1,.049,1.3l-.034.088c-.035.083-.064.168-.1.252a28.867,28.867,0,0,1-5.891,9.426A27.258,27.258,0,0,1-478.985,257.533Zm-9.153-5.154a23.354,23.354,0,0,0,9.153,1.943,24.1,24.1,0,0,0,17.732-7.878,25.82,25.82,0,0,0,4.715-7.118c-.551-.153-1.053-.29-1.541-.416a32.659,32.659,0,0,0-6.852-1.163c-.234,0-.5-.01-.761-.01-.118,0-.234,0-.346.007a1.4,1.4,0,0,1-.156,0,1.612,1.612,0,0,0-.224.007,1.268,1.268,0,0,1-.166,0,.532.532,0,0,0-.068,0c-.288.01-.576.026-.853.046l-.092.006c-.034,0-.1.013-.127.014-.205.015-.405.031-.606.058-.024,0-.048.009-.072.009-.152.013-.293.031-.439.052A24.464,24.464,0,0,0-488.138,252.379Z" transform="translate(573.685 -222.754)" fill="#000729"/>
      <path id="Path_83" data-name="Path 83" d="M-424.944,347.435h-47.084a1.606,1.606,0,0,1-1.606-1.6,1.606,1.606,0,0,1,1.606-1.6h45.48v-7.463l-33.918-13.16-16.391,14.34a1.6,1.6,0,0,1-2.169-.053L-493.8,323.621l-33.869,13.141v7.463h44.944a1.6,1.6,0,0,1,1.6,1.6,1.6,1.6,0,0,1-1.6,1.6h-46.548a1.6,1.6,0,0,1-1.6-1.6V335.665a1.6,1.6,0,0,1,1.024-1.5l35.85-13.911a1.6,1.6,0,0,1,1.691.341l14.454,13.959,16.016-14.012a1.6,1.6,0,0,1,1.633-.288l35.85,13.911a1.6,1.6,0,0,1,1.024,1.5V345.83A1.6,1.6,0,0,1-424.944,347.435Z" transform="translate(584.918 -247.382)" fill="#000729"/>
      <path id="Path_84" data-name="Path 84" d="M-468.685,341.551h-11.773a1.6,1.6,0,0,1-1.165-.5,1.614,1.614,0,0,1-.434-1.194l1.067-18.193a1.631,1.631,0,0,1,1.7-1.51,1.6,1.6,0,0,1,1.507,1.7l-.97,16.493h10.071a1.6,1.6,0,0,1,1.6,1.6A1.6,1.6,0,0,1-468.685,341.551Z" transform="translate(570.876 -247.382)" fill="#000729"/>
      <path id="Path_85" data-name="Path 85" d="M-437.142,341.55h-11.772a1.608,1.608,0,0,1-1.606-1.607,1.607,1.607,0,0,1,1.606-1.6h10.119l-.487-16.539a1.607,1.607,0,0,1,1.559-1.651.256.256,0,0,1,.049,0,1.6,1.6,0,0,1,1.6,1.559l.537,18.193a1.6,1.6,0,0,1-.454,1.165A1.6,1.6,0,0,1-437.142,341.55Z" transform="translate(561.805 -247.381)" fill="#000729"/>
      <path id="Path_86" data-name="Path 86" d="M-453.234,354.78h-10.7a1.6,1.6,0,0,1-1.6-1.6v-5.886a1.6,1.6,0,0,1,1.6-1.6h10.7a1.608,1.608,0,0,1,1.609,1.6v5.886A1.606,1.606,0,0,1-453.234,354.78Zm-9.095-3.209h7.489V348.9h-7.489Z" transform="translate(566.124 -254.727)" fill="#000729"/>
      <path id="Path_87" data-name="Path 87" d="M-461.177,332.837h-1.068a1.614,1.614,0,0,1-1.137-.471l-10.7-10.7a1.6,1.6,0,0,1-.474-1.134V304.479a1.615,1.615,0,0,1,.8-1.39,1.612,1.612,0,0,1,1.605,0,23.18,23.18,0,0,0,9.257,2.894c.229.02.468.039.707.056h0l.058,0h.029l.483.028c.083,0,.2.007.3.007.5.01.888.01,1.307,0,.133,0,.22-.006.308-.01h.053c.146-.005.288-.015.43-.021l.068-.005c.234-.014.477-.033.722-.053a26.628,26.628,0,0,0,6.184-1.38c.038-.015.083-.03.117-.04.814-.282,1.706-.63,2.619-1.024a1.612,1.612,0,0,1,1.521.132,1.613,1.613,0,0,1,.722,1.341v14.982a1.607,1.607,0,0,1-.521,1.185l-12.308,11.236A1.609,1.609,0,0,1-461.177,332.837Zm-10.163-12.972,9.656,9.656,11.211-10.234v-11.9c-.22.078-.43.155-.643.227a.229.229,0,0,1-.049.016l-.034.014a29.568,29.568,0,0,1-6.939,1.54c-.288.024-.551.046-.819.063l-.073,0c-.175.01-.346.024-.521.027-.141.006-.278.01-.415.01-.4.012-.913.012-1.386,0-.1,0-.263,0-.41-.01h-.063l-.482-.029a.316.316,0,0,1-.054,0h-.029c-.258-.017-.521-.043-.779-.064a26.593,26.593,0,0,1-8.17-2.1Z" transform="translate(568.718 -242.413)" fill="#000729"/>
      <path id="Path_88" data-name="Path 88" d="M-408.065,278.471h-12.3a1.607,1.607,0,0,1-1.245-.59,1.586,1.586,0,0,1-.332-1.333l.249-1.225a33.049,33.049,0,0,0,.771-5.049c.01-.279.019-.585.019-.9l-.006-.425a31.632,31.632,0,0,0-1.019-6.14,1.618,1.618,0,0,1,.293-1.376,1.6,1.6,0,0,1,1.269-.62h12.3a1.605,1.605,0,0,1,1.6,1.606v14.445A1.606,1.606,0,0,1-408.065,278.471Zm-10.344-3.211h8.74V264.024h-8.687a28.871,28.871,0,0,1,.655,4.831v.053l0,.466c0,.351-.009.7-.024,1.034A31.2,31.2,0,0,1-418.41,275.261Z" transform="translate(553.595 -230.315)" fill="#000729"/>
      <path id="Path_89" data-name="Path 89" d="M-495.927,278.471h-12.318a1.605,1.605,0,0,1-1.6-1.607V262.419a1.6,1.6,0,0,1,1.6-1.606h12.3a1.607,1.607,0,0,1,1.267.62,1.61,1.61,0,0,1,.293,1.373,29.338,29.338,0,0,0-.488,6.567,34.658,34.658,0,0,0,.469,7,1.65,1.65,0,0,1,.078.491A1.608,1.608,0,0,1-495.927,278.471Zm-10.715-3.211h8.813a46.559,46.559,0,0,1-.248-5.887,45.412,45.412,0,0,1,.219-5.35h-8.784Z" transform="translate(578.869 -230.315)" fill="#000729"/>
      <path id="Path_90" data-name="Path 90" d="M-501.484,251.71a1.631,1.631,0,0,1-.355-.038,1.607,1.607,0,0,1-1.214-1.92,45.285,45.285,0,0,1,12.147-22.265c6.359-6.206,13.982-9.485,22.058-9.485,16.3,0,30.049,12.763,34.2,31.76a1.609,1.609,0,0,1-1.224,1.913,1.606,1.606,0,0,1-1.911-1.227c-3.824-17.485-16.313-29.233-31.07-29.233-14.178,0-27.246,12.3-31.075,29.246A1.6,1.6,0,0,1-501.484,251.71Z" transform="translate(576.926 -218.002)" fill="#000729"/>
      <path id="Path_91" data-name="Path 91" d="M-388.855,465.273a1.634,1.634,0,0,1-.789-.2,1.614,1.614,0,0,1-.815-1.4v-9.094H-391a10.588,10.588,0,0,1-10.7-10.7V419.26c0-6.092,4.9-11.236,10.7-11.236h16.048a1.607,1.607,0,0,1,1.61,1.606v2.14a1.608,1.608,0,0,1-1.61,1.6,1.607,1.607,0,0,1-1.6-1.6v-.536H-391c-4.063,0-7.491,3.676-7.491,8.027v24.61a7.418,7.418,0,0,0,7.491,7.49h2.141a1.6,1.6,0,0,1,1.6,1.607v7.849l15.22-9.221a1.583,1.583,0,0,1,.828-.235h25.15a7.913,7.913,0,0,0,6.515-3.179l-2.052-1.37a1.607,1.607,0,0,1-.449-2.226,1.605,1.605,0,0,1,2.228-.444l3.209,2.14a1.6,1.6,0,0,1,.634,1.841c-1.249,3.737-5.487,6.449-10.085,6.449h-24.7l-17.272,10.467A1.585,1.585,0,0,1-388.855,465.273Z" transform="translate(547.761 -272.657)" fill="#000729"/>
      <path id="Path_92" data-name="Path 92" d="M-312.892,454.757a1.61,1.61,0,0,1-.834-.231L-331,444.058h-24.7a10.588,10.588,0,0,1-10.7-10.7V408.746c0-5.913,4.018-10.613,9.553-11.18.111-.011.224-.02.336-.026.068,0,.137-.01.2-.013.02,0,.084,0,.1-.007.17,0,.336-.009.507-.009h44.944c6.1,0,10.7,4.831,10.7,11.236v24.611a10.587,10.587,0,0,1-10.7,10.7h-.536v9.095a1.6,1.6,0,0,1-.819,1.4A1.621,1.621,0,0,1-312.892,454.757Zm-43.187-54.027h-.073a1.107,1.107,0,0,1-.142.013c-.073.006-.146.007-.219.015-3.931.4-6.671,3.687-6.671,7.987v24.611a7.416,7.416,0,0,0,7.491,7.49h25.145a1.612,1.612,0,0,1,.833.234l15.22,9.222v-7.849a1.6,1.6,0,0,1,1.6-1.607h2.141a7.419,7.419,0,0,0,7.49-7.49V408.746c0-4.652-3.149-8.026-7.49-8.026h-44.944C-355.826,400.72-355.952,400.724-356.079,400.729Z" transform="translate(537.609 -269.633)" fill="#000729"/>
      <path id="Path_93" data-name="Path 93" d="M-311.228,417.993h-31.03a1.6,1.6,0,0,1-1.6-1.605,1.606,1.606,0,0,1,1.6-1.607h31.03a1.605,1.605,0,0,1,1.6,1.607A1.6,1.6,0,0,1-311.228,417.993Z" transform="translate(531.128 -274.6)" fill="#000729"/>
      <path id="Path_94" data-name="Path 94" d="M-311.228,436.019h-31.03a1.6,1.6,0,0,1-1.6-1.606,1.6,1.6,0,0,1,1.6-1.6h31.03a1.6,1.6,0,0,1,1.6,1.6A1.6,1.6,0,0,1-311.228,436.019Z" transform="translate(531.128 -279.786)" fill="#000729"/>
      <path id="Path_95" data-name="Path 95" d="M-455.362,529.77a6.425,6.425,0,0,1-6.417-6.421,6.424,6.424,0,0,1,6.417-6.419,6.429,6.429,0,0,1,6.424,6.419A6.43,6.43,0,0,1-455.362,529.77Zm0-9.631a3.175,3.175,0,0,0-3.209,3.21,3.176,3.176,0,0,0,3.209,3.213,3.177,3.177,0,0,0,3.209-3.213A3.176,3.176,0,0,0-455.362,520.138Z" transform="translate(565.043 -303.98)" fill="#000729"/>
      <path id="Path_96" data-name="Path 96" d="M-460.377,556.94H-574.34a1.6,1.6,0,0,1-1.6-1.606,1.6,1.6,0,0,1,1.6-1.6h113.964a1.6,1.6,0,0,1,1.6,1.6A1.6,1.6,0,0,1-460.377,556.94Z" transform="translate(597.88 -314.566)" fill="#000729"/>
      <path id="Path_97" data-name="Path 97" d="M-402.022,566.7h-79.184a1.6,1.6,0,0,1-1.6-1.6,1.606,1.606,0,0,1,1.6-1.607h79.184a1.608,1.608,0,0,1,1.608,1.607A1.606,1.606,0,0,1-402.022,566.7Z" transform="translate(571.092 -317.373)" fill="#000729"/>
      <path id="Path_98" data-name="Path 98" d="M-349.152,566.7h-9.632a1.6,1.6,0,0,1-1.6-1.6,1.6,1.6,0,0,1,1.6-1.607h9.632a1.606,1.606,0,0,1,1.6,1.607A1.6,1.6,0,0,1-349.152,566.7Z" transform="translate(535.881 -317.373)" fill="#000729"/>
      <path id="Path_99" data-name="Path 99" d="M-543.646,566.7H-581.1a1.607,1.607,0,0,1-1.609-1.6,1.609,1.609,0,0,1,1.609-1.607h37.453a1.608,1.608,0,0,1,1.6,1.607A1.606,1.606,0,0,1-543.646,566.7Z" transform="translate(599.825 -317.373)" fill="#000729"/>
    </g>
  </g>
</svg>
