<svg xmlns="http://www.w3.org/2000/svg" width="189.785" height="195" viewBox="0 0 189.785 195">
  <g id="Group_39" data-name="Group 39" transform="translate(-84.172 -110.297)">
    <g id="Group_38" data-name="Group 38" transform="translate(84.172 110.297)">
      <g id="Group_37" data-name="Group 37" transform="translate(0 5.215)">
        <path id="Path_110" data-name="Path 110" d="M179.063,309.175a94.892,94.892,0,1,1,94.894-94.891A95,95,0,0,1,179.063,309.175Zm0-187.386a92.494,92.494,0,1,0,92.49,92.5A92.6,92.6,0,0,0,179.063,121.789Z" transform="translate(-84.172 -119.391)" fill="#275ba7"/>
      </g>
      <path id="Path_111" data-name="Path 111" d="M262.66,217.369a84.032,84.032,0,1,1-84.033-84.031A84.032,84.032,0,0,1,262.66,217.369Z" transform="translate(-88.618 -120.124)" fill="#275ba7"/>
      <path id="Path_112" data-name="Path 112" d="M195.472,111.93a84.892,84.892,0,1,1-84.893,84.892,84.988,84.988,0,0,1,84.893-84.892m0-1.633A86.525,86.525,0,1,0,282,196.821,86.523,86.523,0,0,0,195.472,110.3Z" transform="translate(-94.74 -110.297)" fill="#fff"/>
    </g>
    <path id="Path_113" data-name="Path 113" d="M239.4,227.35v-6.483c0-3.155,2.109-3.9,3.584-3.9h9.1V203.088l-12.529-.055c-13.9,0-17.062,10.359-17.062,16.994v7.323h-8.04v16.218h8.108V284.1h16.214V243.568h12.033l.584-6.371.9-9.847Z" transform="translate(-55.565 -39.552)" fill="#fff"/>
  </g>
</svg>
