<svg xmlns="http://www.w3.org/2000/svg" width="94.219" height="88" viewBox="0 0 94.219 88">
  <g id="Group_33" data-name="Group 33" transform="translate(-899.569 -11.889)">
    <path id="Path_100" data-name="Path 100" d="M923.524,15.948c-1.737-3.86-3.565-3.938-5.216-4.005-1.351-.058-2.9-.054-4.443-.054a8.517,8.517,0,0,0-6.181,2.9c-2.125,2.32-8.115,7.928-8.115,19.332s8.308,22.427,9.466,23.975,16.037,25.7,39.6,34.99c19.582,7.722,23.567,6.186,27.817,5.8s13.715-5.606,15.647-11.02,1.932-10.051,1.353-11.021-2.125-1.545-4.444-2.7-13.714-6.768-15.84-7.541-3.671-1.159-5.216,1.161-5.986,7.539-7.338,9.084-2.7,1.743-5.023.583S945.8,73.82,936.947,65.923a69.814,69.814,0,0,1-12.9-16.052c-1.353-2.319-.145-3.574,1.018-4.73,1.041-1.039,2.318-2.706,3.478-4.06a15.9,15.9,0,0,0,2.316-3.865,4.266,4.266,0,0,0-.193-4.06C930.09,32,925.585,20.532,923.524,15.948Z" fill="#e5285e"/>
    <path id="Path_101" data-name="Path 101" d="M982.476,95.806c-4.249.39-8.234,1.923-27.817-5.8-23.563-9.289-38.442-33.446-39.6-34.99s-9.465-12.57-9.465-23.975a25.356,25.356,0,0,1,5.447-16.313,9.152,9.152,0,0,0-2.825,2.111c-2.127,2.319-8.118,7.926-8.118,19.331s8.311,22.431,9.465,23.975,16.038,25.7,39.6,34.99c19.583,7.722,23.568,6.189,27.817,5.8,3.727-.341,11.466-4.4,14.615-9.042C988.346,94.08,984.7,95.6,982.476,95.806Z" transform="translate(-0.266 -1.433)" fill="#e41458"/>
  </g>
</svg>
