<svg xmlns="http://www.w3.org/2000/svg" width="281.264" height="190.223" viewBox="0 0 281.264 190.223"><g transform="translate(-194.41 -143.611)"><path d="M449.322,233.989H383.568a7.709,7.709,0,0,1-7.564-6.5,38.489,38.489,0,0,0-75.871,0,7.709,7.709,0,0,1-7.564,6.5H220.762a22.352,22.352,0,0,0-22.352,22.352v71.174a22.352,22.352,0,0,0,22.352,22.352h228.56a22.352,22.352,0,0,0,22.352-22.352V256.341A22.352,22.352,0,0,0,449.322,233.989Z" transform="translate(0 -20.033)" fill="none" stroke="#fff" stroke-miterlimit="10" stroke-width="8"/><g transform="translate(305.837 183.903)"><path d="M399.131,266.022c1.159-.718,1.241-1.371,1.241-1.371S400.216,265.176,399.131,266.022Z" transform="translate(-383.319 -230.627)" fill="none"/><path d="M401.153,257.956c.449-1.664,1.815-6.35,1.035-10.649A29.033,29.033,0,0,1,401.153,257.956Z" transform="translate(-384.1 -223.932)" fill="none"/><path d="M446.645,309.255c.056-.024.113-.046.169-.071v0h0Z" transform="translate(-401.66 -247.817)" fill="#201711"/><path d="M397.787,300.99a1.217,1.217,0,0,0-.363-.98l-8.782-7.753a1.03,1.03,0,0,0-1.135-.413l-.05.011-3.282.742-.087.02s8.319,8.2,13.7,10.325V300.99Z" transform="translate(-377.512 -241.107)" fill="#201711"/><path d="M435.221,253.431l-.05-.03-.044-.037a54.405,54.405,0,0,1-4.312-3.942,2.194,2.194,0,0,1-.506-1.1h0a66.907,66.907,0,0,1,.829-12.345,3.154,3.154,0,0,1,.7-1.149h0a36.1,36.1,0,0,1,4.1-3.4h0a32.226,32.226,0,0,0-14.215-17.741h0s-.616-.4-1.089-.626h0a31.756,31.756,0,0,0-24.484-2.4v1.074h0a1.272,1.272,0,0,1-.626,1.116l-9.934,5.737a1.5,1.5,0,0,1-1.082.057l-1.266-.4a32,32,0,0,0-9.751,20.567l-.071,1.049c-.02.484-.037.97-.037,1.461a31.913,31.913,0,0,0,6.575,19.428l.087-.02,3.282-.742.05-.011a1.03,1.03,0,0,1,1.135.413l8.782,7.753a1.218,1.218,0,0,1,.363.98v1.951a31.548,31.548,0,0,0,23.937-.061l.772-.333.168-.072h0a32.282,32.282,0,0,0,16.692-17.023l.046-.113-.027-.02Zm-44.789-10.171s-.083.653-1.241,1.371a23.764,23.764,0,0,1-7.267,3.691,1,1,0,0,1-1.105-.268c-1.288-1.343-4.575-6.36-5.086-8.577a2.939,2.939,0,0,1,.048-1.045c.649-1.932,3.772-7.839,5.761-9.721a1.616,1.616,0,0,1,1.241-.59,23.191,23.191,0,0,1,7.65,3.137,2.486,2.486,0,0,1,1.034,1.353C392.247,236.909,390.881,241.6,390.431,243.259Zm27.388-26.814a2.49,2.49,0,0,1,1.307,1.031,40.317,40.317,0,0,1,3.247,8.917c.044.353-.021.8-.815,1.571a24.658,24.658,0,0,1-8.106,4.2,3.107,3.107,0,0,1-1.314-.055c-2.471-.682-7.882-3.939-9.716-6.164a3.19,3.19,0,0,1-.776-1.062c-.42-1.5,1.533-6.543,2.433-8.732.214-.507.5-1.16,1.162-1.226C407.881,214.582,415.427,215.78,417.819,216.446Zm-2.167,47.743a1.508,1.508,0,0,1-.986.3c-2.153-.039-9.069-.628-11.143-1.6a1.326,1.326,0,0,1-.71-.763c-.707-1.768-2.27-7.731-2.274-10.4a1.908,1.908,0,0,1,.424-1.38c1.353-1.515,7.64-5.222,10.234-5.919a2.645,2.645,0,0,1,1.929.382,44.9,44.9,0,0,1,7.711,7.219,2.039,2.039,0,0,1,.341,1.04C420.9,255.223,417.369,262.613,415.652,264.188Z" transform="translate(-373.378 -209.235)" fill="#fff" stroke="#1a1818" stroke-miterlimit="10" stroke-width="1"/><path d="M392.927,244.478a2.486,2.486,0,0,0-1.034-1.353,23.191,23.191,0,0,0-7.65-3.137,1.616,1.616,0,0,0-1.241.59c-1.989,1.882-5.112,7.79-5.761,9.721a2.938,2.938,0,0,0-.048,1.045c.511,2.218,3.8,7.234,5.086,8.577a1,1,0,0,0,1.105.268,23.765,23.765,0,0,0,7.267-3.691c1.085-.846,1.241-1.371,1.241-1.371A29.033,29.033,0,0,0,392.927,244.478Z" transform="translate(-374.838 -221.103)" fill="#201711"/><path d="M471.785,245.586a32,32,0,0,1,1.558,9.888,31.018,31.018,0,0,1-2.321,11.941L471,267.4l-.021-.015-.05-.03-.044-.037a54.418,54.418,0,0,1-4.312-3.942,2.193,2.193,0,0,1-.506-1.1h0a66.912,66.912,0,0,1,.829-12.345,3.154,3.154,0,0,1,.7-1.149h0a36.1,36.1,0,0,1,4.1-3.4" transform="translate(-409.131 -223.184)" fill="#201711"/><path d="M437.914,274.127a44.9,44.9,0,0,0-7.711-7.219,2.645,2.645,0,0,0-1.929-.382c-2.595.7-8.882,4.4-10.234,5.919a1.907,1.907,0,0,0-.424,1.38c0,2.67,1.568,8.633,2.274,10.4a1.326,1.326,0,0,0,.71.763c2.074.97,8.991,1.559,11.143,1.6a1.508,1.508,0,0,0,.986-.3c1.717-1.576,5.244-8.965,5.526-11.119A2.04,2.04,0,0,0,437.914,274.127Z" transform="translate(-390.455 -231.334)" fill="#201711"/><path d="M391.783,219.472l9.934-5.737a1.272,1.272,0,0,0,.626-1.116h0v-1.074a32.014,32.014,0,0,0-12.908,7.586l1.266.4A1.5,1.5,0,0,0,391.783,219.472Z" transform="translate(-379.576 -210.127)" fill="#201711"/><path d="M421.818,219.691c-.9,2.189-2.853,7.23-2.433,8.732a3.19,3.19,0,0,0,.775,1.062c1.834,2.225,7.244,5.482,9.716,6.164a3.107,3.107,0,0,0,1.314.055,24.658,24.658,0,0,0,8.106-4.2c.794-.769.859-1.218.815-1.571a40.316,40.316,0,0,0-3.247-8.917,2.49,2.49,0,0,0-1.307-1.031c-2.392-.666-9.938-1.864-12.576-1.52C422.317,218.531,422.031,219.184,421.818,219.691Z" transform="translate(-391.115 -212.774)" fill="#201711"/></g><text transform="translate(333.647 278.758)" fill="#fff" font-size="28" font-family="AntiqueOliveW01-Compact, Antique Olive W01 act"><tspan x="-95.144" y="0">SCHOOL OF </tspan><tspan x="-64.638" y="34">SPORTS</tspan></text><g transform="translate(323.651 143.611)"><path d="M416.131,144.31l3.063,9.418h9.97l-8.078,5.9,3.1,9.475-8.057-5.878-8.058,5.878,3.1-9.475-8.084-5.726h9.977Z" transform="translate(-402.663 -143.881)" fill="#ffbd2e"/><g transform="translate(0)"><path d="M423.918,169.264a.432.432,0,0,1-.253-.082l-7.8-5.693-7.8,5.693a.429.429,0,0,1-.661-.481l3.005-9.177-7.83-5.668a.429.429,0,0,1-.157-.48,1.084,1.084,0,0,1,.409-.446h9.664l2.966-9.022a.429.429,0,0,1,.817,0l2.966,9.2,9.657-.176h0a1.084,1.084,0,0,1,.408.445.429.429,0,0,1-.156.481l-7.824,5.668,3,9.177a.429.429,0,0,1-.408.563Zm-8.057-6.737a.432.432,0,0,1,.254.082L423.1,167.7l-2.688-8.21a.429.429,0,0,1,.156-.481l7-5.2-8.64.176h0a.5.5,0,0,1-.408-.325l-2.654-8.222-2.654,8.222a.5.5,0,0,1-.41.325h-8.646l7.006,5.027a.429.429,0,0,1,.157.481l-2.688,8.21,6.982-5.094A.429.429,0,0,1,415.861,162.528Z" transform="translate(-402.393 -143.611)" fill="#040505"/></g></g><g transform="translate(375.295 171.102)"><path d="M501.249,188.879l-1.791,6.742,5.9,3.814-7.035.4-1.79,6.791-2.517-6.559L487,200.46l5.46-4.417-2.59-6.479,5.9,3.817Z" transform="translate(-486.696 -188.576)" fill="#ffbd2e"/><g transform="translate(0 0)"><path d="M496.175,206.689a.3.3,0,0,1-.118-.145l-2.438-6.353-6.794.381a.3.3,0,0,1-.207-.537l5.288-4.278-2.463-6.348a.3.3,0,0,1,.091-.344.765.765,0,0,1,.412-.107h0l5.716,3.7,5.205-4.2a.3.3,0,0,1,.483.313l-1.764,6.575,5.778,3.59h0a.773.773,0,0,1,.071.42.3.3,0,0,1-.276.225l-6.8.359-1.733,6.578a.3.3,0,0,1-.276.225A.3.3,0,0,1,496.175,206.689Zm-2.188-7.066a.3.3,0,0,1,.118.146l2.18,5.684,1.552-5.884a.3.3,0,0,1,.276-.225l6.131-.4-5.177-3.2h0a.349.349,0,0,1-.118-.348l1.576-5.878-4.715,3.848a.351.351,0,0,1-.367.035l-5.114-3.308,2.221,5.653a.3.3,0,0,1-.091.344l-4.731,3.828,6.078-.341A.3.3,0,0,1,493.987,199.622Z" transform="translate(-486.506 -188.386)" fill="#040505"/></g></g><g transform="translate(280.399 171.18)"><path d="M346.691,189.007l-1.792,6.742,5.9,3.814-7.035.4-1.79,6.791-2.517-6.559-7.014.394,5.46-4.417-2.59-6.479,5.9,3.817Z" transform="translate(-332.137 -188.704)" fill="#ffbd2e"/><g transform="translate(0)"><path d="M341.616,206.817a.3.3,0,0,1-.118-.145l-2.438-6.353-6.794.381a.3.3,0,0,1-.207-.537l5.288-4.278-2.463-6.348a.3.3,0,0,1,.091-.344.769.769,0,0,1,.413-.107h0l5.716,3.7,5.205-4.2a.3.3,0,0,1,.484.313l-1.765,6.575,5.778,3.59h0a.773.773,0,0,1,.071.42.3.3,0,0,1-.276.225l-6.8.359-1.734,6.578a.3.3,0,0,1-.276.225A.3.3,0,0,1,341.616,206.817Zm-2.188-7.066a.3.3,0,0,1,.118.146l2.181,5.683,1.551-5.884a.3.3,0,0,1,.276-.225l6.131-.4-5.177-3.2h0a.349.349,0,0,1-.117-.349l1.575-5.878-4.715,3.848a.35.35,0,0,1-.367.036l-5.113-3.308,2.221,5.653a.3.3,0,0,1-.092.344l-4.73,3.828,6.077-.341A.3.3,0,0,1,339.428,199.75Z" transform="translate(-331.947 -188.514)" fill="#040505"/></g></g></g></svg>